<?xml version="1.0" standalone="no"?><!DOCTYPE svg PUBLIC "-//W3C//DTD SVG 1.1//EN" "http://www.w3.org/Graphics/SVG/1.1/DTD/svg11.dtd"><svg t="1780478255731" class="icon" viewBox="0 0 1024 1024" version="1.1" xmlns="http://www.w3.org/2000/svg" p-id="18524" xmlns:xlink="http://www.w3.org/1999/xlink" width="200" height="200"><path d="M348.8 958.6c-32.6 0-63.1-5.3-88.1-15.3-37.2-14.8-60.1-39.2-64.5-68.5-2.9-18.6 2-37.4 14-54.2 10.8-15.1 27.6-28.8 48.6-39.9l1.5-0.8-1-1.4c-8.9-12.9-16.5-26.9-22.5-41.4l-0.8-1.8-1.6 1.2c-19.5 15.1-37.3 22.7-53 22.7-6.9 0-13.4-1.5-19.2-4.6-23.3-12.2-35.9-42.4-35.3-85.1 0.5-38.6 12-82.5 31.5-120.5 11.3-22 25.2-43.3 40.3-61.6l0.5-0.6-0.2-0.7c-2.5-9.6-3.8-19.6-3.8-29.6 0-24.9 7.3-47.7 20.7-64.2l0.4-0.5-0.1-0.6c-1-9.8-1.5-19.7-1.5-29.4 0-79.3 31.7-153.8 89.4-209.8 57.5-55.8 133.8-86.6 215-86.6 81.2 0 157.6 30.8 215 86.6 57.6 56 89.3 130.5 89.3 209.7 0 5.5-0.2 11.1-0.5 16.6v0.8l0.7 0.5c20.8 15.2 33.7 44.7 33.7 76.9 0 19.2-4.4 37.3-12.7 52.3l-0.4 0.8 0.5 0.8c11.6 17.7 21.7 36.8 30.1 56.8 12.3 29.4 20.1 64 21.9 97.4 1.8 33.4-2.6 62.2-12.4 80.8-8.9 17.1-20.8 22.9-29.1 24.7-3 0.6-6 1-9.1 1-16.2 0-34.3-8.8-53.8-26.3l-1.5-1.4-0.9 1.8c-5.3 11.4-11.6 22.5-18.7 32.9l-0.9 1.4 1.4 0.8c43.7 24.1 66.1 58.2 61.5 93.7-3.8 29.6-26 53.9-62.3 68.4-23.2 9.3-51.5 14.2-81.7 14.2-11.9 0-24.1-0.8-36.3-2.3-50.5-6.3-97.4-25.8-125.3-52.2l-0.5-0.4h-0.6c-3.4 0.1-7 0.2-11.3 0.2h-0.6l-0.4 0.4c-27.9 28.2-77.4 48.5-132.6 54.4-11 1.3-22 1.9-32.8 1.9z m-96.6-312.3c7.1 0 14.1 2.5 19.6 7.2 6 5 9.7 12.1 10.6 19.8 4.1 35.7 21.4 69.6 49.9 97.9 5.8 5.7 9 13.4 9 21.5s-3.1 15.8-8.9 21.6c-3.6 3.7-8.2 6.4-13.1 7.8-25.9 7.5-41.1 17.1-49.4 23.8-9 7.3-14.3 15-13.5 19.8 1 6.5 11.8 16.3 33.7 23.5 17 5.6 37.4 8.5 59 8.5 8.6 0 17.3-0.5 26-1.4 53.1-5.6 88.7-25.3 100.4-42.3 5.7-8.3 15-13.2 25-13.2h1.4c4.3 0.2 8.8 0.3 13.1 0.3 7.5 0 15-0.3 22.5-0.8 0.8-0.1 1.6-0.1 2.4-0.1 9.5 0 18.3 4.3 24.1 11.9 15.5 20.1 53.4 36.6 96.4 42 9.6 1.2 19.3 1.8 28.7 1.8 19.6 0 38.1-2.7 53.4-7.7 19.8-6.5 29.4-15.7 30.2-21.8 0.5-4-2.7-11.5-13.1-20.6-8-6.9-22.8-16.8-48.3-24.9-7.7-2.4-14.1-7.8-17.8-15-3.8-7.2-4.5-15.5-2-23.2 1.5-4.7 4.1-8.9 7.5-12.4 26.6-26.7 43.4-58.6 48.4-92.2 1.2-8 5.5-15.1 12-20 5.3-3.9 11.5-6 18-6 1.5 0 3.1 0.1 4.6 0.3 8 1.2 15 5.4 19.9 11.9 12.5 16.8 23.6 28.1 30.6 34.7l2.1 2 0.4-2.9c0.5-4.1 0.9-8.1 1-12.1 1.1-32.8-4.8-64.8-17.4-95.1-9.5-22.7-21.8-44.2-36.8-63.7-10.2-13.3-7.7-32.4 5.6-42.7l0.2-0.1c3.6-2.7 8.8-12.3 8.8-27.7 0-13.6-4.7-23.8-7.7-26.9l-0.4-0.4-0.6-0.1c-16-1.4-28.2-15.1-27.7-31.2 0-1.2 0.1-2.3 0.3-3.5 1.5-10.8 2.3-21.8 2.3-32.7 0-62.8-25.2-121.8-71.1-166.2-46-44.6-107.2-69.1-172.3-69.1-65.1 0-126.3 24.6-172.3 69.1-45.9 44.2-71.1 103.3-71.1 166 0 12.4 1 24.7 2.9 36.6 1.9 11.9-3.4 23.9-13.5 30.4-3.1 2-9 12.3-9 27.8 0 8.5 1.7 16.5 4.9 22.4 6.1 11.6 4.2 25.7-4.8 35.2-17.4 18.7-32.1 39.7-43.7 62.6-13 25.3-21.9 55.8-24.5 83.6-1.4 15.2-0.5 25.4 0.4 31.3l0.4 2.3 1.9-1.3c11.6-7.8 25-20.4 37.8-35.6 5.2-6.2 12.6-10 20.7-10.7h2.9z" fill="#2fc991" p-id="18525"></path></svg>